<svg width="162" height="102" viewBox="0 0 162 102" fill="none" xmlns="http://www.w3.org/2000/svg">
<g id="Group 342">
<path id="Vector_51" d="M102.71 31.912C103.02 28.631 103.86 25.422 105.2 22.414C105.58 21.577 105.99 20.759 106.44 19.958C106.46 19.917 106.47 19.868 106.45 19.822C106.44 19.776 106.41 19.737 106.37 19.713C106.33 19.689 106.28 19.682 106.23 19.693C106.19 19.704 106.15 19.733 106.12 19.773C104.49 22.688 103.34 25.852 102.73 29.139C102.56 30.057 102.43 30.981 102.34 31.912C102.32 32.146 102.69 32.145 102.71 31.912Z" fill="#E6E6E6"/>
<path id="Vector_52" d="M107.33 20.546C108.61 20.546 109.65 19.507 109.65 18.225C109.65 16.943 108.61 15.904 107.33 15.904C106.04 15.904 105.01 16.943 105.01 18.225C105.01 19.507 106.04 20.546 107.33 20.546Z" fill="#E6E6E6"/>
<path id="Vector_53" d="M102.95 31.973C103.15 29.845 103.69 27.763 104.56 25.812C104.81 25.269 105.07 24.738 105.37 24.218C105.38 24.191 105.38 24.159 105.38 24.13C105.37 24.1 105.35 24.075 105.32 24.059C105.3 24.044 105.26 24.039 105.23 24.046C105.2 24.054 105.18 24.072 105.16 24.098C104.1 25.989 103.36 28.042 102.96 30.174C102.85 30.769 102.77 31.369 102.71 31.973C102.7 32.125 102.93 32.124 102.95 31.973Z" fill="#E6E6E6"/>
<path id="Vector_54" d="M105.94 24.6C106.77 24.6 107.45 23.926 107.45 23.094C107.45 22.262 106.77 21.588 105.94 21.588C105.11 21.588 104.44 22.262 104.44 23.094C104.44 23.926 105.11 24.6 105.94 24.6Z" fill="#E6E6E6"/>
<path id="Vector_55" d="M102.65 31.831C101.5 30.031 100.65 28.054 100.13 25.979C99.99 25.401 99.87 24.818 99.79 24.229C99.78 24.199 99.76 24.171 99.74 24.153C99.71 24.135 99.68 24.127 99.65 24.131C99.62 24.135 99.5899 24.151 99.5699 24.175C99.5599 24.199 99.55 24.23 99.55 24.261C99.88 26.405 100.55 28.481 101.55 30.406C101.83 30.943 102.13 31.467 102.46 31.977C102.54 32.106 102.73 31.959 102.65 31.831Z" fill="#E6E6E6"/>
<path id="Vector_56" d="M99.55 24.494C100.38 24.494 101.05 23.82 101.05 22.988C101.05 22.157 100.38 21.482 99.55 21.482C98.72 21.482 98.04 22.157 98.04 22.988C98.04 23.82 98.72 24.494 99.55 24.494Z" fill="#E6E6E6"/>
<path id="Vector_57" d="M98.03 33.164V30.205C98.03 29.911 98.14 29.629 98.35 29.421C98.56 29.213 98.84 29.096 99.13 29.095H106.04C106.33 29.096 106.62 29.213 106.82 29.421C107.03 29.629 107.15 29.911 107.15 30.205V33.164C107.15 33.458 107.03 33.74 106.82 33.948C106.62 34.156 106.33 34.273 106.04 34.273H99.13C98.84 34.273 98.56 34.156 98.35 33.948C98.14 33.74 98.03 33.458 98.03 33.164Z" fill="#F2F2F2"/>
<path id="Vector_58" d="M105.79 14.301H102.83C102.54 14.301 102.26 14.184 102.05 13.976C101.84 13.768 101.72 13.486 101.72 13.191V1.11C101.72 0.815001 101.84 0.532997 102.05 0.324997C102.26 0.116997 102.54 0 102.83 0H105.79C106.09 0 106.37 0.116997 106.58 0.324997C106.78 0.532997 106.9 0.815001 106.9 1.11V13.191C106.9 13.486 106.78 13.768 106.58 13.976C106.37 14.184 106.09 14.301 105.79 14.301Z" fill="#F2F2F2"/>
<path id="Vector_59" d="M106.78 2.342H101.85V3.32899H106.78V2.342Z" fill="#CCCCCC"/>
<path id="Vector_60" d="M106.78 9.98599H101.85V10.972H106.78V9.98599Z" fill="#CCCCCC"/>
<path id="Vector_61" d="M113.19 14.301H110.23C109.94 14.301 109.65 14.184 109.45 13.976C109.24 13.768 109.12 13.486 109.12 13.191V1.11C109.12 0.815001 109.24 0.532997 109.45 0.324997C109.65 0.116997 109.94 0 110.23 0H113.19C113.48 0 113.77 0.116997 113.97 0.324997C114.18 0.532997 114.3 0.815001 114.3 1.11V13.191C114.3 13.486 114.18 13.768 113.97 13.976C113.77 14.184 113.48 14.301 113.19 14.301Z" fill="#F2F2F2"/>
<path id="Vector_62" d="M114.18 2.342H109.24V3.32899H114.18V2.342Z" fill="#CCCCCC"/>
<path id="Vector_63" d="M114.18 9.98599H109.24V10.972H114.18V9.98599Z" fill="#CCCCCC"/>
<path id="Vector_64" d="M120.59 14.301H117.63C117.33 14.301 117.05 14.184 116.84 13.976C116.64 13.768 116.52 13.486 116.52 13.191V1.11C116.52 0.815001 116.64 0.532997 116.84 0.324997C117.05 0.116997 117.33 0 117.63 0H120.59C120.88 0 121.16 0.116997 121.37 0.324997C121.58 0.532997 121.7 0.815001 121.7 1.11V13.191C121.7 13.486 121.58 13.768 121.37 13.976C121.16 14.184 120.88 14.301 120.59 14.301Z" fill="#F2F2F2"/>
<path id="Vector_65" d="M121.57 2.342H116.64V3.32899H121.57V2.342Z" fill="#CCCCCC"/>
<path id="Vector_66" d="M121.57 9.98599H116.64V10.972H121.57V9.98599Z" fill="#CCCCCC"/>
<path id="Vector_67" d="M124.53 34.273H121.57C121.28 34.273 121 34.156 120.79 33.948C120.58 33.74 120.46 33.458 120.46 33.164V21.082C120.46 20.788 120.58 20.506 120.79 20.298C121 20.09 121.28 19.972 121.57 19.972H124.53C124.83 19.972 125.11 20.09 125.32 20.298C125.52 20.506 125.64 20.788 125.64 21.082V33.164C125.64 33.458 125.52 33.74 125.32 33.948C125.11 34.156 124.83 34.273 124.53 34.273Z" fill="#F2F2F2"/>
<path id="Vector_68" d="M125.52 22.314H120.59V23.301H125.52V22.314Z" fill="#CCCCCC"/>
<path id="Vector_69" d="M125.52 29.958H120.59V30.944H125.52V29.958Z" fill="#CCCCCC"/>
<path id="Vector_70" d="M131.93 34.273H128.97C128.68 34.273 128.39 34.156 128.19 33.948C127.98 33.74 127.86 33.458 127.86 33.164V21.082C127.86 20.788 127.98 20.506 128.19 20.298C128.39 20.09 128.68 19.972 128.97 19.972H131.93C132.22 19.972 132.5 20.09 132.71 20.298C132.92 20.506 133.04 20.788 133.04 21.082V33.164C133.04 33.458 132.92 33.74 132.71 33.948C132.5 34.156 132.22 34.273 131.93 34.273Z" fill="#F2F2F2"/>
<path id="Vector_71" d="M132.91 22.314H127.98V23.301H132.91V22.314Z" fill="#CCCCCC"/>
<path id="Vector_72" d="M132.91 29.958H127.98V30.944H132.91V29.958Z" fill="#CCCCCC"/>
<path id="Vector_73" d="M139.33 34.273H136.37C136.07 34.273 135.79 34.156 135.58 33.948C135.37 33.74 135.26 33.458 135.26 33.164V21.082C135.26 20.788 135.37 20.506 135.58 20.298C135.79 20.09 136.07 19.972 136.37 19.972H139.33C139.62 19.972 139.9 20.09 140.11 20.298C140.32 20.506 140.43 20.788 140.44 21.082V33.164C140.43 33.458 140.32 33.74 140.11 33.948C139.9 34.156 139.62 34.273 139.33 34.273Z" fill="#F2F2F2"/>
<path id="Vector_74" d="M140.31 22.314H135.38V23.301H140.31V22.314Z" fill="#CCCCCC"/>
<path id="Vector_75" d="M140.31 29.958H135.38V30.944H140.31V29.958Z" fill="#CCCCCC"/>
<path id="Vector_76" d="M105.05 54.245H102.09C101.8 54.244 101.52 54.127 101.31 53.919C101.1 53.711 100.98 53.429 100.98 53.135V41.053C100.98 40.759 101.1 40.477 101.31 40.269C101.52 40.061 101.8 39.944 102.09 39.944H105.05C105.35 39.944 105.63 40.061 105.84 40.269C106.04 40.477 106.16 40.759 106.16 41.053V53.135C106.16 53.429 106.04 53.711 105.84 53.919C105.63 54.127 105.35 54.244 105.05 54.245Z" fill="#F2F2F2"/>
<path id="Vector_77" d="M106.04 42.287H101.11V43.273H106.04V42.287Z" fill="#CCCCCC"/>
<path id="Vector_78" d="M106.04 49.93H101.11V50.916H106.04V49.93Z" fill="#CCCCCC"/>
<path id="Vector_79" d="M112.45 54.245H109.49C109.2 54.244 108.91 54.127 108.71 53.919C108.5 53.711 108.38 53.429 108.38 53.135V41.053C108.38 40.759 108.5 40.477 108.71 40.269C108.91 40.061 109.2 39.944 109.49 39.944H112.45C112.74 39.944 113.03 40.061 113.23 40.269C113.44 40.477 113.56 40.759 113.56 41.053V53.135C113.56 53.429 113.44 53.711 113.23 53.919C113.03 54.127 112.74 54.244 112.45 54.245Z" fill="#F2F2F2"/>
<path id="Vector_80" d="M113.44 42.287H108.5V43.273H113.44V42.287Z" fill="#CCCCCC"/>
<path id="Vector_81" d="M113.44 49.93H108.5V50.916H113.44V49.93Z" fill="#CCCCCC"/>
<path id="Vector_82" d="M119.85 54.245H116.89C116.59 54.244 116.31 54.127 116.1 53.919C115.9 53.711 115.78 53.429 115.78 53.135V41.053C115.78 40.759 115.9 40.477 116.1 40.269C116.31 40.061 116.59 39.944 116.89 39.944H119.85C120.14 39.944 120.42 40.061 120.63 40.269C120.84 40.477 120.96 40.759 120.96 41.053V53.135C120.96 53.429 120.84 53.711 120.63 53.919C120.42 54.127 120.14 54.244 119.85 54.245Z" fill="#F2F2F2"/>
<path id="Vector_83" d="M120.83 42.287H115.9V43.273H120.83V42.287Z" fill="#CCCCCC"/>
<path id="Vector_84" d="M120.83 49.93H115.9V50.916H120.83V49.93Z" fill="#CCCCCC"/>
<path id="Vector_85" d="M127.98 14.301H125.02C124.73 14.301 124.45 14.184 124.24 13.976C124.03 13.768 123.92 13.486 123.92 13.191V1.11C123.92 0.815001 124.03 0.532997 124.24 0.324997C124.45 0.116997 124.73 0 125.02 0H127.98C128.28 0 128.56 0.116997 128.77 0.324997C128.98 0.532997 129.09 0.815001 129.09 1.11V13.191C129.09 13.486 128.98 13.768 128.77 13.976C128.56 14.184 128.28 14.301 127.98 14.301Z" fill="#F2F2F2"/>
<path id="Vector_86" d="M128.97 2.342H124.04V3.32899H128.97V2.342Z" fill="#CCCCCC"/>
<path id="Vector_87" d="M128.97 9.98599H124.04V10.972H128.97V9.98599Z" fill="#CCCCCC"/>
<path id="Vector_88" d="M135.38 14.301H132.42C132.13 14.301 131.85 14.184 131.64 13.976C131.43 13.768 131.31 13.486 131.31 13.191V1.11C131.31 0.815001 131.43 0.532997 131.64 0.324997C131.85 0.116997 132.13 0 132.42 0H135.38C135.67 0 135.96 0.116997 136.16 0.324997C136.37 0.532997 136.49 0.815001 136.49 1.11V13.191C136.49 13.486 136.37 13.768 136.16 13.976C135.96 14.184 135.67 14.301 135.38 14.301Z" fill="#F2F2F2"/>
<path id="Vector_89" d="M136.37 2.342H131.44V3.32899H136.37V2.342Z" fill="#CCCCCC"/>
<path id="Vector_90" d="M136.37 9.98599H131.44V10.972H136.37V9.98599Z" fill="#CCCCCC"/>
<path id="Vector_91" d="M142.78 14.301H139.82C139.52 14.301 139.24 14.184 139.03 13.976C138.83 13.768 138.71 13.486 138.71 13.191V1.11C138.71 0.815001 138.83 0.532997 139.03 0.324997C139.24 0.116997 139.52 0 139.82 0H142.78C143.07 0 143.35 0.116997 143.56 0.324997C143.77 0.532997 143.89 0.815001 143.89 1.11V13.191C143.89 13.486 143.77 13.768 143.56 13.976C143.35 14.184 143.07 14.301 142.78 14.301Z" fill="#F2F2F2"/>
<path id="Vector_92" d="M143.76 2.342H138.83V3.32899H143.76V2.342Z" fill="#CCCCCC"/>
<path id="Vector_93" d="M143.76 9.98599H138.83V10.972H143.76V9.98599Z" fill="#CCCCCC"/>
<path id="Vector_94" d="M150.17 14.301H147.22C146.92 14.301 146.64 14.184 146.43 13.976C146.22 13.768 146.11 13.486 146.11 13.191V1.11C146.11 0.815001 146.22 0.532997 146.43 0.324997C146.64 0.116997 146.92 0 147.22 0H150.17C150.47 0 150.75 0.116997 150.96 0.324997C151.17 0.532997 151.28 0.815001 151.28 1.11V13.191C151.28 13.486 151.17 13.768 150.96 13.976C150.75 14.184 150.47 14.301 150.17 14.301Z" fill="#F2F2F2"/>
<path id="Vector_95" d="M151.16 2.342H146.23V3.32899H151.16V2.342Z" fill="#CCCCCC"/>
<path id="Vector_96" d="M151.16 9.98599H146.23V10.972H151.16V9.98599Z" fill="#CCCCCC"/>
<path id="Vector_97" d="M161.26 14.671H90.98C90.92 14.671 90.8601 14.645 90.8101 14.599C90.7601 14.552 90.74 14.49 90.74 14.424C90.74 14.359 90.7601 14.296 90.8101 14.25C90.8601 14.204 90.92 14.178 90.98 14.178H161.26C161.32 14.178 161.38 14.204 161.43 14.25C161.48 14.296 161.5 14.359 161.5 14.424C161.5 14.49 161.48 14.552 161.43 14.599C161.38 14.645 161.32 14.671 161.26 14.671Z" fill="#CCCCCC"/>
<path id="Vector_98" d="M161.26 34.643H90.98C90.92 34.643 90.8601 34.617 90.8101 34.57C90.7601 34.524 90.74 34.461 90.74 34.396C90.74 34.331 90.7601 34.268 90.8101 34.222C90.8601 34.175 90.92 34.149 90.98 34.149H161.26C161.32 34.149 161.38 34.175 161.43 34.222C161.48 34.268 161.5 34.331 161.5 34.396C161.5 34.461 161.48 34.524 161.43 34.57C161.38 34.617 161.32 34.643 161.26 34.643Z" fill="#CCCCCC"/>
<path id="Vector_99" d="M161.26 54.615H90.98C90.92 54.615 90.8601 54.589 90.8101 54.542C90.7601 54.496 90.74 54.434 90.74 54.368C90.74 54.303 90.7601 54.24 90.8101 54.194C90.8601 54.148 90.92 54.122 90.98 54.122H161.26C161.32 54.122 161.38 54.148 161.43 54.194C161.48 54.24 161.5 54.303 161.5 54.368C161.5 54.434 161.48 54.496 161.43 54.542C161.38 54.589 161.32 54.615 161.26 54.615Z" fill="#CCCCCC"/>
<path id="Vector_100" d="M143.39 51.884C143.7 48.603 144.54 45.395 145.89 42.387C146.26 41.55 146.67 40.731 147.12 39.931C147.15 39.889 147.15 39.84 147.14 39.794C147.12 39.748 147.09 39.709 147.05 39.685C147.01 39.661 146.96 39.654 146.92 39.665C146.87 39.677 146.83 39.705 146.81 39.746C145.17 42.66 144.02 45.824 143.41 49.111C143.24 50.029 143.11 50.953 143.03 51.884C143.01 52.119 143.37 52.117 143.39 51.884Z" fill="#E6E6E6"/>
<path id="Vector_101" d="M148.01 40.518C149.29 40.518 150.33 39.479 150.33 38.197C150.33 36.915 149.29 35.875 148.01 35.875C146.73 35.875 145.69 36.915 145.69 38.197C145.69 39.479 146.73 40.518 148.01 40.518Z" fill="#E6E6E6"/>
<path id="Vector_102" d="M143.63 51.945C143.83 49.817 144.38 47.735 145.25 45.784C145.49 45.241 145.76 44.71 146.05 44.191C146.07 44.163 146.07 44.132 146.06 44.102C146.05 44.072 146.03 44.047 146.01 44.031C145.98 44.016 145.95 44.011 145.92 44.019C145.89 44.026 145.86 44.044 145.85 44.071C144.78 45.961 144.04 48.014 143.64 50.146C143.53 50.742 143.45 51.341 143.39 51.945C143.38 52.097 143.62 52.096 143.63 51.945Z" fill="#E6E6E6"/>
<path id="Vector_103" d="M146.63 44.572C147.46 44.572 148.13 43.898 148.13 43.066C148.13 42.234 147.46 41.56 146.63 41.56C145.79 41.56 145.12 42.234 145.12 43.066C145.12 43.898 145.79 44.572 146.63 44.572Z" fill="#E6E6E6"/>
<path id="Vector_104" d="M143.33 51.803C142.18 50.003 141.33 48.026 140.82 45.951C140.67 45.373 140.56 44.79 140.47 44.201C140.46 44.171 140.45 44.144 140.42 44.125C140.4 44.107 140.37 44.099 140.34 44.103C140.31 44.107 140.28 44.123 140.26 44.147C140.24 44.171 140.23 44.202 140.23 44.233C140.56 46.377 141.24 48.453 142.23 50.378C142.51 50.915 142.82 51.439 143.14 51.949C143.23 52.078 143.41 51.931 143.33 51.803Z" fill="#E6E6E6"/>
<path id="Vector_105" d="M140.23 44.466C141.06 44.466 141.74 43.792 141.74 42.961C141.74 42.129 141.06 41.455 140.23 41.455C139.4 41.455 138.73 42.129 138.73 42.961C138.73 43.792 139.4 44.466 140.23 44.466Z" fill="#E6E6E6"/>
<path id="Vector_106" d="M138.71 53.135V50.176C138.71 49.882 138.83 49.6 139.03 49.392C139.24 49.184 139.52 49.067 139.82 49.067H146.72C147.02 49.067 147.3 49.184 147.51 49.392C147.71 49.6 147.83 49.882 147.83 50.176V53.135C147.83 53.429 147.71 53.711 147.51 53.919C147.3 54.127 147.02 54.244 146.72 54.245H139.82C139.52 54.244 139.24 54.127 139.03 53.919C138.83 53.711 138.71 53.429 138.71 53.135Z" fill="#F2F2F2"/>
<path id="Vector_107" d="M94.1899 89.627H0.25C0.18 89.627 0.120007 89.601 0.0700073 89.555C0.0300073 89.509 0 89.446 0 89.381C0 89.315 0.0300073 89.253 0.0700073 89.206C0.120007 89.16 0.18 89.134 0.25 89.134H94.1899C94.2499 89.134 94.32 89.16 94.36 89.206C94.41 89.253 94.4399 89.315 94.4399 89.381C94.4399 89.446 94.41 89.509 94.36 89.555C94.32 89.601 94.2499 89.627 94.1899 89.627Z" fill="#3F3D56"/>
<path id="Vector_108" d="M49.08 57.327C52.76 57.327 55.74 54.346 55.74 50.67C55.74 46.993 52.76 44.012 49.08 44.012C45.4 44.012 42.42 46.993 42.42 50.67C42.42 54.346 45.4 57.327 49.08 57.327Z" fill="#2F2E41"/>
<path id="Vector_109" d="M42.76 93.406L42.58 90.389L54.14 88.272L54.4 92.726L42.76 93.406Z" fill="#FFB8B8"/>
<path id="Vector_110" d="M43.3199 88.183L43.66 94.003L39.99 94.217L39.4399 84.733C39.9199 84.705 40.4 84.772 40.86 84.93C41.31 85.088 41.73 85.334 42.09 85.655C42.45 85.975 42.74 86.363 42.96 86.797C43.17 87.231 43.2899 87.702 43.3199 88.183Z" fill="#2F2E41"/>
<path id="Vector_111" d="M47.78 93.379L45.86 95.714L35.9399 89.422L38.77 85.975L47.78 93.379Z" fill="#FFB8B8"/>
<path id="Vector_112" d="M43.8199 96.834L47.53 92.33L50.36 94.661L44.3299 102C43.9599 101.694 43.65 101.318 43.42 100.892C43.19 100.467 43.05 100.001 43.01 99.522C42.96 99.042 43.01 98.558 43.15 98.096C43.29 97.635 43.5199 97.206 43.8199 96.834Z" fill="#2F2E41"/>
<path id="Vector_113" d="M42.26 82.519L40.95 88.703C40.92 88.845 40.92 88.992 40.95 89.134C40.99 89.276 41.0501 89.408 41.1401 89.522C41.2301 89.636 41.35 89.728 41.48 89.792C41.61 89.856 41.7501 89.891 41.9001 89.893L54.7901 90.101C54.9401 90.104 55.08 90.074 55.21 90.014C55.35 89.954 55.4601 89.866 55.5601 89.755C55.6501 89.645 55.72 89.514 55.76 89.374C55.8 89.234 55.8001 89.087 55.7801 88.944L54.6501 82.552C54.6101 82.324 54.4901 82.117 54.3101 81.968C54.1301 81.819 53.9101 81.737 53.6801 81.737H43.22C43 81.737 42.78 81.815 42.6 81.957C42.43 82.1 42.31 82.298 42.26 82.519Z" fill="#2F2E41"/>
<path id="Vector_114" d="M44.4 84.696C44.4 84.696 31.8199 76.806 29.3599 80.997C28.1199 83.093 28.74 85.127 29.66 86.638C30.52 88.013 31.7499 89.115 33.2199 89.816L43.41 94.805L47.1099 90.86L44.64 88.641L44.4 84.696Z" fill="#2F2E41"/>
<path id="Vector_115" d="M50.8101 83.463C50.8101 83.463 67.08 78.779 63.88 87.655C60.67 96.531 48.59 93.08 48.59 93.08L47.36 89.381L51.55 86.422L50.8101 83.463Z" fill="#2F2E41"/>
<path id="Vector_116" d="M49.17 58.246C52.51 58.246 55.22 55.534 55.22 52.19C55.22 48.845 52.51 46.134 49.17 46.134C45.82 46.134 43.11 48.845 43.11 52.19C43.11 55.534 45.82 58.246 49.17 58.246Z" fill="#FFB8B8"/>
<path id="Vector_117" d="M49.48 84.442C46.97 84.404 44.46 84.074 42.02 83.459L41.95 83.439L38.57 67.894C38.27 66.528 38.4701 65.098 39.1501 63.874C39.8301 62.65 40.93 61.717 42.25 61.251C46.33 59.789 50.7701 59.7 54.9001 60.998C56.2901 61.445 57.4501 62.398 58.1701 63.667C58.8801 64.936 59.09 66.427 58.76 67.844L54.98 83.426L54.9301 83.451C53.3601 84.195 51.4 84.442 49.48 84.442Z" fill="#CCCCCC"/>
<path id="Vector_118" d="M44.9399 85.65C45.0699 85.308 45.26 84.998 45.52 84.741C45.77 84.484 46.08 84.286 46.42 84.161C46.76 84.036 47.1299 83.988 47.4899 84.019C47.8499 84.049 48.2 84.159 48.51 84.34L55.17 78.564L55.77 83.103L49.3599 87.892C49.0199 88.4 48.51 88.765 47.92 88.92C47.32 89.075 46.7 89.008 46.15 88.731C45.61 88.455 45.1899 87.989 44.9599 87.421C44.7399 86.853 44.7299 86.222 44.9399 85.65Z" fill="#FFB8B8"/>
<path id="Vector_119" d="M51.2901 86.909C51.1801 86.909 51.07 86.893 50.97 86.862C50.8 86.813 50.6501 86.724 50.5201 86.604C50.3901 86.483 50.3 86.333 50.24 86.168L49.44 83.892C49.36 83.682 49.3501 83.454 49.4101 83.238C49.4701 83.022 49.59 82.829 49.76 82.683L58.82 77.241L55.25 61.297L55.34 61.275C55.38 61.266 59.0401 60.433 60.5401 64.434C61.5901 67.236 65.48 73.329 65.2 77.447C65.15 78.271 64.8201 79.053 64.2701 79.667C63.7201 80.281 62.9801 80.691 62.1701 80.832L51.96 86.678C51.77 86.828 51.5301 86.909 51.2901 86.909Z" fill="#CCCCCC"/>
<path id="Vector_120" d="M52.3101 85.109C52.1801 84.767 51.99 84.457 51.73 84.2C51.48 83.943 51.17 83.745 50.83 83.62C50.49 83.495 50.12 83.447 49.76 83.478C49.4 83.508 49.05 83.618 48.74 83.799L42.08 78.023L41.48 82.562L47.89 87.351C48.23 87.858 48.74 88.224 49.33 88.379C49.92 88.534 50.55 88.467 51.09 88.19C51.64 87.914 52.06 87.447 52.29 86.88C52.51 86.312 52.5201 85.681 52.3101 85.109Z" fill="#FFB8B8"/>
<path id="Vector_121" d="M46.63 86.909C46.38 86.909 46.15 86.828 45.96 86.679L35.01 81.325C34.2 81.184 33.46 80.774 32.9 80.16C32.35 79.546 32.03 78.764 31.97 77.94C31.7 73.823 36.33 67.236 37.38 64.434C38.88 60.433 42.5399 61.266 42.5799 61.275L42.67 61.297L38.35 77.734L48.16 82.683C48.33 82.829 48.45 83.022 48.51 83.238C48.57 83.454 48.56 83.682 48.48 83.892L47.68 86.168C47.62 86.333 47.52 86.483 47.4 86.604C47.27 86.724 47.1199 86.813 46.9499 86.862C46.8399 86.893 46.74 86.909 46.63 86.909Z" fill="#CCCCCC"/>
<path id="Vector_122" d="M59.6801 89.381H37.74C37.28 89.38 36.84 89.198 36.52 88.875C36.2 88.551 36.01 88.113 36.01 87.655V75.573C36.01 75.116 36.2 74.677 36.52 74.353C36.84 74.03 37.28 73.848 37.74 73.847H59.6801C60.1401 73.848 60.58 74.03 60.9 74.353C61.23 74.677 61.41 75.116 61.41 75.573V87.655C61.41 88.113 61.23 88.551 60.9 88.875C60.58 89.198 60.1401 89.38 59.6801 89.381Z" fill="#F9A826"/>
<path id="Vector_123" d="M48.71 83.094C49.53 83.094 50.1899 82.431 50.1899 81.614C50.1899 80.797 49.53 80.135 48.71 80.135C47.89 80.135 47.23 80.797 47.23 81.614C47.23 82.431 47.89 83.094 48.71 83.094Z" fill="white"/>
<path id="Vector_124" d="M43.05 51.943C42.69 51.033 43.28 49.948 44.15 49.507C45.03 49.066 46.08 49.15 47.01 49.44C47.8 49.685 48.54 50.063 49.3 50.362C50.06 50.697 50.8799 50.844 51.7099 50.79C52.5199 50.698 53.34 50.24 53.67 49.489C54.02 48.71 53.78 47.759 53.25 47.095C52.68 46.452 51.95 45.98 51.12 45.73C49.32 45.095 47.2399 45.077 45.5699 45.999C43.8999 46.922 42.76 48.887 43.11 50.766" fill="#2F2E41"/>
<path id="Vector_125" d="M8.05 86.747C8.36 83.466 9.19999 80.258 10.54 77.25C10.92 76.413 11.33 75.594 11.78 74.794C11.8 74.752 11.81 74.703 11.8 74.657C11.78 74.612 11.75 74.573 11.71 74.549C11.67 74.525 11.62 74.517 11.58 74.529C11.53 74.54 11.49 74.569 11.46 74.609C9.83003 77.524 8.68002 80.688 8.07002 83.974C7.90002 84.892 7.77001 85.816 7.69001 86.747C7.67001 86.982 8.03 86.98 8.05 86.747Z" fill="#E6E6E6"/>
<path id="Vector_126" d="M12.67 75.382C13.95 75.382 14.99 74.343 14.99 73.061C14.99 71.779 13.95 70.739 12.67 70.739C11.39 70.739 10.35 71.779 10.35 73.061C10.35 74.343 11.39 75.382 12.67 75.382Z" fill="#F9A826"/>
<path id="Vector_127" d="M8.28998 86.809C8.48998 84.681 9.02997 82.599 9.90997 80.648C10.15 80.105 10.42 79.574 10.71 79.054C10.72 79.027 10.73 78.995 10.72 78.966C10.71 78.936 10.69 78.911 10.66 78.895C10.64 78.88 10.61 78.875 10.58 78.882C10.55 78.89 10.52 78.908 10.5 78.934C9.44 80.825 8.69999 82.878 8.29999 85.01C8.18999 85.605 8.10999 86.205 8.04999 86.809C8.03999 86.961 8.27998 86.96 8.28998 86.809Z" fill="#E6E6E6"/>
<path id="Vector_128" d="M11.29 79.436C12.12 79.436 12.79 78.761 12.79 77.93C12.79 77.098 12.12 76.424 11.29 76.424C10.45 76.424 9.78003 77.098 9.78003 77.93C9.78003 78.761 10.45 79.436 11.29 79.436Z" fill="#F9A826"/>
<path id="Vector_129" d="M7.98999 86.667C6.83999 84.867 5.98998 82.89 5.47998 80.815C5.32998 80.237 5.22 79.654 5.13 79.065C5.12 79.035 5.11002 79.007 5.08002 78.989C5.06002 78.971 5.02999 78.963 4.98999 78.967C4.95999 78.971 4.93998 78.987 4.91998 79.011C4.89998 79.035 4.89001 79.066 4.89001 79.097C5.22001 81.241 5.89001 83.317 6.89001 85.242C7.17001 85.779 7.47999 86.303 7.79999 86.813C7.88999 86.942 8.06999 86.795 7.98999 86.667Z" fill="#E6E6E6"/>
<path id="Vector_130" d="M4.89001 79.33C5.72001 79.33 6.40002 78.655 6.40002 77.824C6.40002 76.992 5.72001 76.318 4.89001 76.318C4.06001 76.318 3.38 76.992 3.38 77.824C3.38 78.655 4.06001 79.33 4.89001 79.33Z" fill="#F9A826"/>
<path id="Vector_131" d="M3.37 87.999V85.04C3.37 84.746 3.49 84.464 3.69 84.256C3.9 84.048 4.17998 83.931 4.47998 83.931H11.38C11.68 83.931 11.96 84.048 12.17 84.256C12.37 84.464 12.49 84.746 12.49 85.04V87.999C12.49 88.293 12.37 88.575 12.17 88.783C11.96 88.991 11.68 89.108 11.38 89.109H4.47998C4.17998 89.108 3.9 88.991 3.69 88.783C3.49 88.575 3.37 88.293 3.37 87.999Z" fill="#F2F2F2"/>
<path id="Vector_132" d="M77.52 91.452C77.52 93.074 76.21 93.811 74.59 93.811C72.97 93.811 71.65 93.074 71.65 91.452C71.65 89.83 72.3 87.938 74.59 88.591C76.87 87.612 77.52 89.83 77.52 91.452Z" fill="#FF6584"/>
<path id="Vector_133" d="M74.44 89.35C74.33 89.351 74.22 89.309 74.13 89.234C74.05 89.159 73.99 89.055 73.98 88.941C73.88 88.132 73.34 86.548 73.12 85.904C73.1 85.84 73.09 85.771 73.1 85.704C73.11 85.637 73.1301 85.573 73.1701 85.518C73.2101 85.468 73.2601 85.427 73.3101 85.398C73.3701 85.368 73.43 85.351 73.49 85.346C73.55 85.342 73.6101 85.351 73.6701 85.372C73.7301 85.393 73.78 85.427 73.83 85.47C73.87 85.512 73.9001 85.561 73.9201 85.615C73.9401 85.67 73.95 85.727 73.94 85.785C73.9 86.611 74.5 87.946 74.87 88.668C74.9 88.736 74.9201 88.812 74.9201 88.888C74.9101 88.964 74.89 89.039 74.86 89.106C74.82 89.173 74.77 89.23 74.71 89.272C74.64 89.314 74.57 89.34 74.49 89.348C74.48 89.35 74.46 89.35 74.44 89.35Z" fill="#3F3D56"/>
<path id="Vector_134" d="M76.62 87.528C77.64 86.694 76.8401 84.986 75.5601 85.314C75.3901 85.355 75.23 85.44 75.1 85.559C74.32 86.299 74.2 88.19 74.2 88.19C74.2 88.19 75.58 88.377 76.62 87.528Z" fill="#3F3D56"/>
</g>
</svg>
